<svg xmlns="http://www.w3.org/2000/svg" width="150" height="24" fill="none"><g fill="#fff" clip-path="url(#a)"><path d="m31.316 7.752-1.74 4.208h3.464l-1.724-4.208Zm0 0-1.74 4.208h3.464l-1.724-4.208ZM53.807 1H5.624A5.625 5.625 0 0 0 0 6.623v8.87a5.622 5.622 0 0 0 5.624 5.622h48.183a5.625 5.625 0 0 0 5.624-5.623v-8.87A5.622 5.622 0 0 0 53.807 1ZM21.906 18.484h-3V8.637l-4.154 5.848h-.626L9.925 8.687v9.797H6.909V3.634h2.917l4.772 6.526 4.552-6.526h2.756v14.85Zm13.797 0-1.497-3.67h-5.8l-1.488 3.67H23.82L30.105 3.6h2.546l6.286 14.884h-3.234Zm16.883-1.928-.072.07c-1.431 1.431-3.88 2.084-5.55 2.084-4.77 0-7.733-2.932-7.733-7.652 0-2.103.71-4.027 1.998-5.414 1.36-1.462 3.23-2.236 5.408-2.236 1.975 0 3.445.466 4.769 1.51l.165.127-1.323 2.48-.237-.222c-.67-.632-1.876-1.04-3.07-1.04-2.766 0-4.552 1.883-4.552 4.795 0 2.913 1.82 4.796 4.613 4.796 1.034 0 2.222-.435 2.726-.848v-1.894h-3.474v-2.85h6.323l.01 6.294Zm-23.01-4.596h3.464l-1.724-4.208-1.74 4.208ZM125.234 16.336a1.175 1.175 0 1 0 .015 0h-.015ZM133.323 6.823c-1.694 0-3.26.651-4.175 1.95h-.131V2.262h-1.564V18.42h1.564v-1.82c1.173 1.173 2.607 1.956 4.301 1.956 3.259 0 5.604-2.607 5.604-5.865s-2.476-5.87-5.599-5.87Zm-.261 10.295a4.347 4.347 0 0 1-4.04-2.997v-2.868c.652-1.693 2.215-2.996 4.04-2.996 2.345 0 4.301 1.954 4.301 4.43s-1.962 4.43-4.308 4.43h.007ZM144.265 15.814l-4.171-8.863h-1.825l5.214 10.948-2.217 4.3h1.696l7.04-15.248h-1.694l-4.043 8.863ZM123.15 7.082h-3.13l-2.737 3.78h-.129l-2.607-3.78h-3.26l4.041 5.474-4.301 5.734h3.389l2.738-4.039h.129l2.607 4.039h3.387l-4.168-5.734 4.041-5.474ZM86.26 6.822c-3.39 0-5.997 2.481-5.997 5.865 0 3.383 2.607 5.864 5.997 5.864 2.607 0 4.821-1.434 5.605-3.52h-2.998c-.522.783-1.564 1.044-2.482 1.044-1.564 0-2.868-.913-3.258-2.346v-.131h8.993c0-.26.13-.652.13-.911-.126-3.389-2.596-5.865-5.99-5.865Zm-3.13 4.692c.263-1.434 1.567-2.347 3.128-2.347 1.696 0 2.738 1.044 2.999 2.347H83.13ZM107.375 8.256a5.604 5.604 0 0 0-3.649-1.434c-3.127 0-5.47 2.612-5.47 5.865s2.216 5.864 5.473 5.864c1.316 0 2.58-.514 3.522-1.434h.129v1.173h2.603V7.082h-2.608v1.174Zm0 5.864c-.389 1.042-1.693 1.955-2.998 1.955a3.452 3.452 0 0 1-3.387-3.388 3.365 3.365 0 0 1 3.341-3.389h.045a3.29 3.29 0 0 1 2.999 1.955v2.867ZM96.556 2.13H93.82v16.162h2.737V2.13ZM79.221 8.649v-.262c0-2.606-2.086-4.82-4.692-4.82h-7.692v14.855h2.868V13.34h3.527l3.126 5.082h3.39l-3.52-5.474a4.508 4.508 0 0 0 2.993-4.3Zm-5.084 2.085h-4.432V6.302h4.432c1.174 0 2.084.913 2.084 2.216.001 1.172-.91 2.216-2.084 2.216Z"/></g><defs><clipPath id="a"><path fill="#fff" d="M0 0h150v24H0z"/></clipPath></defs></svg>